<?xml version="1.0" encoding="UTF-8" standalone="no"?>
<!-- Created with Inkscape (http://www.inkscape.org/) -->

<svg
   width="210mm"
   height="297mm"
   viewBox="0 0 210 297"
   version="1.1"
   id="svg5"
   inkscape:version="1.1.2 (0a00cf5339, 2022-02-04)"
   sodipodi:docname="ClimbyLogo.svg"
   xmlns:inkscape="http://www.inkscape.org/namespaces/inkscape"
   xmlns:sodipodi="http://sodipodi.sourceforge.net/DTD/sodipodi-0.dtd"
   xmlns="http://www.w3.org/2000/svg"
   xmlns:svg="http://www.w3.org/2000/svg">
  <sodipodi:namedview
     id="namedview7"
     pagecolor="#ffffff"
     bordercolor="#666666"
     borderopacity="1.0"
     inkscape:pageshadow="2"
     inkscape:pageopacity="0.0"
     inkscape:pagecheckerboard="0"
     inkscape:document-units="mm"
     showgrid="false"
     inkscape:zoom="0.57370932"
     inkscape:cx="-81.051499"
     inkscape:cy="560.38832"
     inkscape:window-width="2560"
     inkscape:window-height="1403"
     inkscape:window-x="1680"
     inkscape:window-y="0"
     inkscape:window-maximized="1"
     inkscape:current-layer="layer1" />
  <defs
     id="defs2" />
  <g
     inkscape:label="Capa 1"
     inkscape:groupmode="layer"
     id="layer1">
    <path
       style="fill:#000000;stroke-width:0.264583"
       d="m 57.457105,222.7493 c -1.944576,-0.54735 -3.533685,-1.51198 -5.370349,-3.25993 -5.796537,-5.51658 -4.246653,-15.73908 2.923557,-19.28279 2.007441,-0.99213 2.030256,-0.99639 5.337074,-0.99639 3.454109,0 7.42638,0.69415 7.418003,1.29629 -0.01164,0.83758 -0.404397,0.93409 -1.989595,0.48893 -1.109564,-0.31159 -2.638919,-0.44603 -5.150104,-0.45275 -3.405227,-0.009 -3.637105,0.0248 -4.969972,0.72708 -1.917692,1.01041 -3.401639,2.5727 -4.331878,4.56057 -2.155644,4.60651 -1.381918,9.53981 2.031561,12.95329 2.548903,2.54891 5.70656,3.52857 9.850061,3.056 1.194777,-0.13627 2.654734,-0.3923 3.24435,-0.56895 0.817433,-0.24491 1.145416,-0.2478 1.381038,-0.0122 1.262525,1.26253 -6.977666,2.44674 -10.373746,1.49083 z m 69.755385,-0.0353 c -0.097,-0.097 -0.17639,-4.80372 -0.17639,-10.45935 0,-9.54878 0.0331,-10.29572 0.46302,-10.46178 0.25467,-0.0984 1.77271,-0.18391 3.37344,-0.19013 2.58843,-0.0101 3.05673,0.0619 4.23295,0.65015 1.71832,0.8594 2.51393,2.04678 2.51393,3.75179 0,1.6853 -0.57113,3.00666 -1.87546,4.33907 l -1.05666,1.0794 1.04335,0.47049 c 5.05278,2.27848 4.92388,9.30554 -0.19678,10.72792 -1.05966,0.29435 -8.04193,0.37191 -8.3214,0.0924 z m 7.90285,-1.23281 c 2.50018,-0.96683 3.62352,-3.29661 2.67343,-5.54461 -0.93834,-2.2202 -3.37767,-3.54376 -7.00582,-3.80129 l -2.42393,-0.17206 v 4.75802 c 0,2.61691 0.0794,4.8374 0.17639,4.93441 0.29888,0.29888 5.72815,0.15492 6.57993,-0.17447 z m -0.65454,-11.46936 c 1.37243,-1.2399 1.84917,-2.17518 1.87952,-3.68728 0.0273,-1.36142 -0.54289,-2.33397 -1.80023,-3.07045 -0.96219,-0.56359 -3.35602,-0.86327 -4.96657,-0.62175 l -1.2145,0.18213 v 4.08483 4.08483 h 2.51278 2.51278 z m -60.341359,2.03064 v -10.58333 h 0.658275 0.658278 l 0.06933,9.98802 0.06933,9.98802 4.828645,0.0721 c 4.609584,0.0688 4.828646,0.0959 4.828646,0.59531 0,0.5046 -0.197517,0.5232 -5.55625,0.5232 h -5.556249 z m 15.874999,0 v -10.58333 h 0.661458 0.661458 v 10.58333 10.58333 H 90.655898 89.99444 Z m 7.266431,9.98802 c 0.152307,-0.68294 3.316899,-20.18586 3.316899,-20.44157 0,-0.0927 0.19105,-0.13009 0.42455,-0.083 0.3775,0.0761 5.21286,10.94064 7.0738,15.89414 0.31429,0.8366 0.68034,1.48492 0.81343,1.44069 0.1331,-0.0442 2.05113,-3.9434 4.26229,-8.66484 2.60875,-5.57041 4.1727,-8.61448 4.45436,-8.66999 0.23874,-0.047 0.43407,-0.007 0.43407,0.0892 0,0.27359 2.90544,19.4877 3.07011,20.30311 0.12944,0.64099 0.0671,0.7276 -0.52356,0.7276 -0.80033,0 -0.60802,0.87727 -2.13552,-9.74211 -0.63467,-4.41228 -1.22335,-8.09173 -1.30818,-8.17656 -0.0848,-0.0848 -0.32503,0.25099 -0.53378,0.74628 -0.20876,0.49528 -1.82674,3.99614 -3.59551,7.77968 -1.76878,3.78355 -3.3376,7.20659 -3.48627,7.60677 -0.62965,1.69491 -1.03078,1.02899 -4.58206,-7.60677 -2.8815,-7.007 -3.83856,-9.05329 -3.83856,-8.2072 0,0.07 -0.59531,4.02496 -1.322918,8.78892 -0.727604,4.76396 -1.322916,8.69533 -1.322916,8.73637 0,0.041 -0.299924,0.0746 -0.666499,0.0746 -0.554133,0 -0.644117,-0.10036 -0.533736,-0.59531 z M 149.2611,218.9083 v -3.7175 l -3.96875,-6.73761 c -2.18281,-3.70569 -3.96875,-6.79531 -3.96875,-6.86583 0,-0.0705 0.32742,-0.12691 0.72761,-0.12532 0.66611,0.003 1.00067,0.4682 3.95872,5.50847 1.77711,3.02806 3.30789,5.70566 3.40174,5.95022 0.0939,0.24456 0.30672,0.44021 0.47305,0.43477 0.16633,-0.005 1.55258,-2.17207 3.08055,-4.81475 3.8562,-6.66944 4.13305,-7.08161 4.75667,-7.08161 0.29425,0 0.535,0.12156 0.535,0.27015 0,0.14858 -1.72641,3.21753 -3.83646,6.81988 l -3.83646,6.54972 v 3.76346 3.76345 h -0.66146 -0.66146 z M 97.799647,182.67045 C 80.45289,181.7327 63.100715,173.32386 51.577962,160.27147 42.241256,149.69533 36.837577,138.04217 34.790321,124.06852 c -0.656992,-4.48432 -0.661386,-14.19184 -0.0083,-18.38854 1.45215,-9.331792 4.302118,-17.40946 8.832636,-25.034355 7.990241,-13.447633 20.228598,-23.63915 35.026706,-29.168566 14.916273,-5.573568 31.600727,-5.593084 46.652177,-0.05457 15.0486,5.537468 27.36149,15.885895 35.505,29.840351 5.68513,9.741847 8.64121,20.22084 9.01517,31.95777 0.25549,8.01885 -0.80449,15.53134 -3.2053,22.71733 -7.98308,23.89449 -27.57322,41.00676 -52.40458,45.77615 -4.72154,0.90688 -10.78277,1.26024 -16.404159,0.95636 z m 8.069793,-1.31269 c 16.50614,-1.20877 30.77503,-7.47648 42.16928,-18.52314 11.25873,-10.91527 17.456,-23.14115 20.05278,-39.55985 0.50307,-3.18071 0.41819,-13.02081 -0.14606,-16.93333 -1.07511,-7.454898 -3.08573,-14.036758 -6.2492,-20.457065 C 151.99715,66.199939 134.11887,52.979694 112.35173,49.396152 106.47232,48.428221 98.123934,48.378686 92.375689,49.277625 79.826378,51.24015 69.394985,55.921367 59.424105,64.065061 c -8.230733,6.72243 -15.408797,16.661884 -19.394097,26.854975 -1.594592,4.078443 -2.807604,8.508521 -3.647687,13.321824 -0.664602,3.80789 -0.735781,4.81846 -0.734906,10.43396 10e-4,6.43086 0.2835,9.27591 1.458079,14.68437 2.031352,9.35355 6.688432,19.15182 12.727895,26.77886 0.897481,1.1334 3.00829,3.47294 4.690688,5.19898 11.603704,11.90472 26.379208,18.75247 43.143279,19.99489 3.957164,0.29327 4.513594,0.29496 8.202084,0.0248 z m -6.350001,-2.52049 v -0.66146 h 3.439581 3.43959 v 0.66146 0.66146 h -3.43959 -3.439581 z m -10.550662,-0.54899 c -3.520847,-0.78192 -3.776697,-0.88713 -3.687048,-1.51617 0.09744,-0.68371 0.02617,-0.68549 3.864949,0.0967 2.711746,0.55252 2.981441,0.65968 2.910416,1.15643 -0.09929,0.69442 -0.855848,0.75886 -3.088317,0.26307 z M 113.716,177.85664 c -0.084,-0.32107 -0.12761,-0.5952 -0.097,-0.60919 0.0306,-0.014 1.52446,-0.38869 3.31967,-0.83268 l 3.26401,-0.80726 0.20951,0.55655 c 0.27338,0.72619 0.10768,0.80956 -3.20325,1.6117 -3.32778,0.80622 -3.3034,0.80566 -3.49293,0.0809 z m -39.26583,-4.43716 c -1.491589,-0.71165 -2.711979,-1.36919 -2.711979,-1.46119 0,-0.092 0.118978,-0.38958 0.264395,-0.66129 0.247285,-0.46206 0.45701,-0.40236 3.241146,0.92262 2.190935,1.04268 2.97675,1.54438 2.97675,1.90048 0,0.82506 -0.937879,0.65078 -3.770312,-0.70062 z m 52.97999,0.24954 c -0.0978,-0.30809 -0.13715,-0.59339 -0.0875,-0.634 0.0497,-0.0406 1.40963,-0.73238 3.02214,-1.53728 2.76629,-1.38081 2.94929,-1.43548 3.24114,-0.96815 0.17013,0.27241 0.30932,0.55536 0.30932,0.62876 0,0.15933 -4.91063,2.63669 -5.73335,2.89242 -0.44042,0.13689 -0.61534,0.0481 -0.75176,-0.38175 z m -64.567745,-7.33593 c -2.993154,-2.31431 -3.128983,-2.4735 -2.658988,-3.11626 0.342749,-0.46873 0.461537,-0.41593 2.178328,0.96824 0.998696,0.80521 2.202764,1.7308 2.675707,2.05686 0.961628,0.66297 1.005343,0.78592 0.516932,1.45386 -0.315566,0.43156 -0.532204,0.32271 -2.711979,-1.3627 z m 76.880695,0.21416 c -0.2407,-0.44977 -0.0329,-0.7132 1.61723,-2.05052 1.04138,-0.84395 2.23673,-1.81387 2.65633,-2.15536 0.61692,-0.50209 0.83729,-0.55918 1.15159,-0.29833 0.21377,0.17741 0.38868,0.42585 0.38868,0.55209 0,0.26476 -5.01211,4.46818 -5.32782,4.46818 -0.1154,0 -0.3341,-0.23223 -0.48601,-0.51606 z m -42.604921,-2.0023 c -0.218281,-0.0447 -1.416494,-0.21975 -2.662695,-0.38902 -2.578248,-0.3502 -2.987151,-0.52643 -2.843075,-1.22536 0.114388,-0.55489 0.09147,-0.55481 4.182853,-0.0137 2.398694,0.31722 2.513542,0.36195 2.513542,0.97905 0,0.63318 -0.346263,0.82194 -1.190625,0.64906 z m 8.570541,-0.2384 c -0.32266,-0.84084 0.0807,-1.06707 2.42934,-1.36248 1.29887,-0.16337 2.73306,-0.381 3.18709,-0.48362 0.71303,-0.16115 0.84687,-0.10492 0.98224,0.41274 0.20596,0.7876 -0.0361,0.90668 -2.57468,1.26644 -1.17892,0.16707 -2.532,0.36316 -3.00684,0.43574 -0.61653,0.0942 -0.90732,0.0174 -1.01715,-0.26882 z m -8.967416,-2.70511 c -6.340072,-1.00107 -11.114923,-2.49853 -16.007291,-5.02013 -4.613192,-2.37771 -7.793587,-4.71794 -11.642655,-8.56701 -4.017229,-4.01723 -6.291484,-7.15314 -8.731411,-12.03953 -3.257618,-6.52395 -4.705429,-12.13434 -4.953182,-19.194 -0.2173,-6.19187 0.429675,-10.77371 2.329349,-16.49634 5.195345,-15.650584 18.630764,-27.651719 34.651699,-30.952486 5.33808,-1.099796 12.746747,-1.226907 17.784207,-0.30512 7.27941,1.332032 14.00231,4.259022 19.85489,8.644345 9.34014,6.998533 15.38687,16.529533 17.95764,28.305251 0.53007,2.42801 0.59955,3.48217 0.59955,9.09627 0,7.10677 -0.30411,9.20255 -2.13076,14.68438 -4.58534,13.76074 -15.40884,24.69355 -29.18844,29.48324 -4.93975,1.71701 -8.41549,2.29391 -14.43818,2.3964 -2.910416,0.0495 -5.648853,0.0337 -6.085416,-0.0353 z m 12.098176,-1.69383 c 1.12421,-0.17326 2.1459,-0.44981 2.27043,-0.61455 0.12452,-0.16475 0.55534,-1.21978 0.95737,-2.34452 0.92653,-2.59212 2.1764,-4.23131 4.01946,-5.27147 1.38179,-0.77983 2.61138,-2.11471 3.59486,-3.90268 0.47182,-0.85778 1.18507,-1.08162 1.42814,-0.44818 0.34426,0.89713 -2.35487,4.54794 -3.95967,5.3558 -1.18821,0.59815 -2.51113,1.9139 -3.12774,3.11079 -0.74804,1.45199 -1.27921,3.03496 -1.06114,3.16233 0.27328,0.15961 3.81822,-0.95337 6.52302,-2.04799 7.27608,-2.9446 14.8602,-8.97062 19.52609,-15.5146 2.15496,-3.02236 5.19052,-9.00577 6.27143,-12.36165 1.5813,-4.90941 1.99551,-7.81462 1.99008,-13.9582 -0.006,-6.30589 -0.45595,-9.32026 -2.14823,-14.3783 -0.88951,-2.658661 -3.18325,-7.625583 -3.41466,-7.394184 -0.0609,0.06095 -0.9192,2.066507 -1.90722,4.456795 -1.18318,2.862409 -1.94504,4.374609 -2.2318,4.429829 -0.23947,0.0461 -0.97653,-0.32921 -1.63793,-0.83406 -1.36669,-1.04322 -2.5391,-1.392885 -3.30175,-0.98473 -0.58159,0.31127 -3.0442,5.03987 -4.81409,9.24386 -1.13785,2.7027 -1.6012,3.29025 -2.15667,2.73478 -0.3573,-0.35729 1.35721,-4.71081 3.61228,-9.17239 2.27906,-4.509032 3.35001,-5.121778 6.32713,-3.620088 1.03396,0.521538 1.56095,0.664028 1.71246,0.463018 0.25315,-0.335851 3.4831,-8.152884 3.4831,-8.429696 0,-0.742368 -4.10162,-6.085488 -6.34445,-8.264832 -1.32834,-1.290732 -1.3715,-1.310042 -1.77418,-0.79375 -0.67148,0.860941 -2.62775,5.155692 -3.19373,7.011458 -0.64193,2.104766 -0.97264,4.233334 -0.65773,4.233334 0.29623,0 2.42307,-1.792965 3.0596,-2.579294 0.54754,-0.676396 1.18483,-0.776422 1.39854,-0.219506 0.2663,0.693973 -0.41539,1.441619 -3.6707,4.025829 -4.43947,3.524263 -6.22641,5.393067 -7.30587,7.640577 -0.48817,1.01641 -2.13673,5.00317 -3.66347,8.85948 -1.52673,3.8563 -3.07201,7.51747 -3.43396,8.13593 -0.36195,0.61847 -0.53528,1.12448 -0.38519,1.12448 0.15009,0 1.49829,-1.07156 2.99601,-2.38125 1.49773,-1.30968 2.9114,-2.38125 3.14151,-2.38125 0.48668,0 10.50577,4.11258 10.98204,4.50785 0.2158,0.1791 0.56882,0.17127 1.08033,-0.0239 0.41788,-0.15949 1.52017,-0.25135 2.44952,-0.20412 l 1.68973,0.0859 0.84545,-2.64583 c 0.9543,-2.98647 4.70287,-10.65536 5.32507,-10.89412 0.2241,-0.086 0.53543,-0.0284 0.69184,0.12802 0.20279,0.20279 -0.32105,1.48445 -1.82568,4.46691 -1.79127,3.55061 -2.41768,5.18187 -4.14615,10.7971 -2.37023,7.70015 -2.40994,7.80521 -2.94971,7.80521 -0.71076,0 -0.71407,-0.6684 -0.0146,-2.96147 0.3733,-1.22387 0.67593,-2.39766 0.6725,-2.60843 -0.003,-0.21078 -0.7725,0.80579 -1.70905,2.25903 -0.93654,1.45324 -1.83636,2.68677 -1.9996,2.74118 -0.16323,0.0544 -0.9122,-0.31888 -1.66439,-0.82953 -0.75218,-0.51064 -2.83361,-1.43538 -4.62539,-2.05496 l -3.2578,-1.12651 -1.57085,1.55446 c -0.86397,0.85495 -1.56385,1.67725 -1.5553,1.82732 0.009,0.15008 2.39348,2.23066 5.29983,4.62351 l 5.28427,4.35065 2.04236,0.0239 c 2.21431,0.0259 3.49757,0.41665 3.49757,1.06506 0,0.57646 -6.56861,8.7138 -7.10942,8.8073 -0.24398,0.0422 -0.95095,-0.35758 -1.57105,-0.88836 -0.74668,-0.63913 -1.30173,-0.91947 -1.64352,-0.83009 -0.61788,0.16158 -0.95747,-0.10079 -6.43645,-4.97283 -2.29109,-2.03729 -4.27131,-3.74119 -4.40049,-3.78645 -0.12918,-0.0453 -1.22511,0.39652 -2.43541,0.98173 -1.21029,0.58521 -2.83767,1.20024 -3.61639,1.36673 -1.36212,0.29122 -1.43852,0.35439 -2.01287,1.6641 -0.78917,1.79959 -1.28545,3.35 -1.12399,3.51145 0.0716,0.0716 0.83223,-0.10023 1.69023,-0.3819 2.52429,-0.82868 3.75643,-0.96905 3.95537,-0.45061 0.24568,0.64024 -0.16185,0.91545 -1.98558,1.3409 -2.07968,0.48516 -4.01705,1.46641 -4.85022,2.45659 -0.89253,1.06071 -1.66159,3.08864 -2.44202,6.43941 -0.4171,1.79081 -0.95166,3.30117 -1.46183,4.1303 -1.396919,2.27028 -1.388971,2.27591 2.96604,2.10043 2.07367,-0.0836 4.69012,-0.29367 5.81433,-0.46693 z m -12.759634,-0.1126 c 0,-0.0685 1.250156,-4.70141 2.778125,-10.29535 1.527969,-5.59393 2.778129,-10.36355 2.778129,-10.59915 0,-0.2356 -0.416,-0.79361 -0.92444,-1.24003 -0.50844,-0.44642 -1.35999,-1.69294 -1.892324,-2.77004 -0.532334,-1.07711 -1.023091,-1.95837 -1.09057,-1.95837 -0.06748,0 -0.677143,0.19692 -1.354804,0.4376 -2.206442,0.78366 -3.885568,0.0492 -5.606738,-2.45244 -0.78455,-1.1403 -0.824044,-1.16023 -2.306859,-1.16422 -0.829755,-0.002 -1.672918,-0.10809 -1.873697,-0.23526 -0.296947,-0.18808 -0.354346,-1.45839 -0.307655,-6.80897 0.03157,-3.61777 -0.0254,-7.49792 -0.126598,-8.62255 -0.144976,-1.61116 -0.08817,-2.31254 0.267856,-3.30729 l 0.451853,-1.2625 -1.114327,-3.29154 c -1.541203,-4.55246 -2.611064,-6.780871 -4.072419,-8.482417 -0.687384,-0.800364 -1.558755,-2.020755 -1.936376,-2.711979 -0.417883,-0.764915 -0.869263,-1.25677 -1.153354,-1.25677 -1.27623,0 -3.280682,3.252287 -4.076699,6.614586 -0.837174,3.53613 -1.701594,5.97725 -2.513462,7.098 l -0.794679,1.09702 1.715272,1.08329 c 2.347127,1.48235 3.652322,3.05153 4.684853,5.63241 0.47416,1.1852 1.371227,3.16228 1.993484,4.39352 0.906664,1.794 1.065509,2.30446 0.799756,2.57012 -0.18239,0.18232 -0.462647,0.24651 -0.622794,0.14263 -0.508717,-0.32997 -1.572872,-2.23611 -2.468827,-4.4222 -2.144901,-5.23347 -3.161361,-6.36333 -7.670874,-8.52666 -1.802262,-0.86459 -2.99848,-1.66153 -4.143676,-2.76056 -0.885484,-0.84979 -1.8058,-1.54507 -2.045145,-1.54507 -0.487381,0 -1.238088,1.33997 -2.213535,3.95104 -0.721382,1.93099 -1.681483,3.73271 -3.461586,6.496 l -1.190533,1.84808 0.326348,2.64983 c 0.922332,7.48901 3.281653,13.89242 7.372921,20.01079 6.495589,9.71395 16.282309,16.48398 27.692332,19.15635 2.537047,0.59421 4.101042,0.79714 4.101042,0.5321 z M 92.400867,147.007 c -0.523171,-0.55348 -1.71773,-2.47086 -2.65458,-4.26085 -2.810917,-5.3707 -3.130791,-5.55223 -4.588854,-2.60419 -0.634272,1.28243 -1.217636,2.07666 -1.760029,2.39621 -0.446212,0.26289 -0.811223,0.62008 -0.811131,0.79375 9e-5,0.17367 0.545,1.00979 1.210908,1.85804 0.673756,0.85824 1.146755,1.70901 1.066469,1.91823 -0.609943,1.58949 -3.358247,-2.13275 -5.541062,-7.50469 -0.36566,-0.89989 -1.214647,-3.43766 -1.886638,-5.63947 -1.435042,-4.70199 -2.12535,-6.16416 -3.672493,-7.77885 -1.354899,-1.41405 -2.245238,-1.5515 -3.222114,-0.49744 -0.695857,0.75084 -3.03131,5.22976 -4.225801,8.10422 -0.562662,1.35401 -0.868904,1.78594 -1.266245,1.78594 -0.452538,0 -0.503296,-0.12815 -0.371771,-0.93865 0.238484,-1.4696 3.937595,-8.85831 4.994129,-9.97541 0.832493,-0.88022 1.082699,-0.99219 2.217086,-0.99219 1.209596,0 1.359104,0.0827 2.766653,1.53008 1.835152,1.8871 2.524297,3.31841 4.108957,8.53404 2.510079,8.26147 3.463057,9.27538 5.276964,5.61436 0.436562,-0.88112 1.020561,-1.85221 1.297778,-2.15797 1.235972,-1.36325 2.955684,-0.11481 4.802053,3.48609 1.79991,3.51029 3.290866,5.70925 3.933652,5.80162 0.638149,0.0917 0.893874,0.97198 0.377444,1.29925 -0.648827,0.41118 -1.08972,0.24523 -2.051375,-0.77212 z m 6.533771,10.46517 c 0.432877,-0.77392 1.091572,-2.71071 1.487392,-4.37348 0.7793,-3.27365 1.45853,-5.05903 2.38856,-6.27835 0.33421,-0.43818 0.68977,-1.21222 0.79013,-1.72009 0.10035,-0.50787 0.49369,-1.84556 0.87407,-2.97265 0.38039,-1.1271 0.62784,-2.11304 0.5499,-2.19098 -0.078,-0.078 -0.52058,-0.25037 -0.98364,-0.38317 -0.76891,-0.22053 -0.86553,-0.17966 -1.11418,0.47118 -0.21313,0.55785 -2.54306,8.9616 -4.98403,17.97671 -0.348134,1.28573 0.114816,1.03873 0.991798,-0.52917 z m 32.159072,-14.88281 c 2.29283,-2.91151 2.45482,-3.19222 1.9519,-3.38252 -0.66878,-0.25305 -2.66842,0.0189 -3.19207,0.43421 -0.58612,0.46479 -3.3466,4.43881 -3.3466,4.81779 0,0.4157 1.34095,1.4509 1.77082,1.36707 0.17359,-0.0339 1.44076,-1.4903 2.81595,-3.23655 z m -4.34688,-1.17419 c 1.03223,-1.44578 1.87677,-2.69412 1.87677,-2.77408 0,-0.13893 -10.13582,-8.66348 -11.71419,-9.85202 l -0.75845,-0.57113 -2.89848,1.34497 c -2.11994,0.9837 -2.97719,1.26626 -3.19152,1.05193 -0.57287,-0.57288 0.0381,-1.07349 3.11686,-2.55394 l 3.11756,-1.49909 0.72944,0.53929 c 0.40119,0.29662 0.88029,0.5393 1.06466,0.5393 0.18437,0 1.19338,-0.85244 2.24225,-1.8943 l 1.90702,-1.89429 2.8617,1.00557 c 1.57393,0.55307 2.99449,1.0549 3.15679,1.11518 0.29456,0.10941 1.96046,-3.65956 1.95259,-4.41758 -0.003,-0.26207 -1.4672,-1.00347 -4.31169,-2.18281 -2.36915,-0.98227 -4.48445,-1.78594 -4.70065,-1.78594 -0.2162,0 -2.08551,1.48059 -4.154,3.29019 -2.0685,1.80961 -3.89073,3.37043 -4.0494,3.46849 -0.15867,0.0981 -0.62795,-0.14693 -1.04285,-0.54444 l -0.75437,-0.72272 -1.17187,0.96026 c -1.04539,0.85662 -1.18924,1.10999 -1.33278,2.34747 -0.17966,1.54887 -1.04114,2.57784 -2.15825,2.57784 -0.36951,0 -0.68628,0.19096 -0.76808,0.46302 -0.0766,0.25466 -0.62582,2.23856 -1.22057,4.40866 -1.19495,4.36006 -1.21189,4.24983 0.69725,4.53861 1.67031,0.25266 3.92563,-0.34371 6.64245,-1.75645 l 2.46382,-1.28119 1.77957,1.5409 c 0.97876,0.84749 3.26211,2.85863 5.0741,4.4692 1.812,1.61058 3.37846,2.87645 3.48104,2.81305 0.10258,-0.0634 1.03105,-1.29817 2.06328,-2.74395 z m -23.43865,-8.15238 c 0.53755,-2.00091 0.97655,-3.77163 0.97556,-3.93493 -0.002,-0.39197 -2.01014,-0.70376 -2.59038,-0.40226 -0.24977,0.12978 -1.13874,0.31899 -1.975484,0.42046 -0.836744,0.10147 -1.521354,0.29562 -1.521354,0.43143 0,0.13582 0.470845,1.37827 1.046324,2.761 1.069964,2.57086 2.208344,4.36233 2.772014,4.36233 0.18218,0 0.72978,-1.54037 1.29332,-3.63803 z m -7.384418,-1.22977 c 1.117513,-0.46693 1.282145,-0.74048 0.958284,-1.59229 -0.250891,-0.6599 -0.336799,-0.68366 -2.471335,-0.68366 -1.216277,0 -2.287267,0.0759 -2.379983,0.16857 -0.287774,0.28777 0.813134,1.58749 1.725605,2.03724 1.066088,0.52545 1.076888,0.5258 2.167429,0.0701 z m 3.463385,-4.06414 1.058333,-0.20517 v -1.84759 -1.8476 l -3.293874,-0.0747 -3.293872,-0.0747 -0.635727,0.81231 c -0.505772,0.64625 -0.711338,0.74956 -1.005605,0.50533 -0.536535,-0.44528 -0.462266,-0.82899 0.387504,-2.00206 0.716396,-0.98896 0.750226,-1.15702 0.625176,-3.10557 -0.131451,-2.04828 -0.12862,-2.05952 0.496686,-1.97072 0.34589,0.0491 0.652717,0.26789 0.681839,0.48618 0.02912,0.21828 0.129109,1.20054 0.2222,2.18281 l 0.169251,1.78594 1.500293,-0.004 c 2.190007,-0.006 2.268353,-0.1016 2.087679,-2.54958 -0.208264,-2.82178 -0.79679,-4.34236 -2.329926,-6.01985 -1.425606,-1.55984 -3.582024,-2.68774 -4.633915,-2.42373 -0.802944,0.20153 -2.407234,1.60866 -2.883008,2.52871 -0.684977,1.3246 -1.313698,13.53101 -0.728554,14.14465 0.235604,0.24708 10.049303,-0.0247 11.57552,-0.32059 z m 7.752263,-1.98213 c 0.0763,-1.46258 0.0541,-1.52135 -0.57367,-1.52135 -1.00335,0 -1.49005,-0.27123 -1.49005,-0.83036 0,-0.792 -0.74013,-0.88863 -2.02501,-0.26439 l -1.1751,0.57091 0.0787,1.65098 0.0787,1.65098 0.92604,0.1691 c 0.50932,0.093 1.64042,0.15253 2.51354,0.13229 l 1.5875,-0.0368 z m 26.56391,-1.2769 c 0.97483,-1.5169 1.77851,-2.84729 1.78594,-2.95643 0.0259,-0.38063 -1.30747,-0.19421 -2.7122,0.37919 -1.37253,0.56026 -1.43689,0.63384 -2.13974,2.4465 l -0.72464,1.86887 0.70748,0.60856 c 0.38912,0.3347 0.84322,0.56417 1.00911,0.50992 0.1659,-0.0542 1.09922,-1.33972 2.07405,-2.85661 z m -24.17587,-2.1812 0.85139,-0.87842 -0.80845,-1.11603 c -0.44465,-0.61382 -0.90648,-1.05546 -1.02628,-0.98141 -0.1198,0.074 -0.37255,0.86369 -0.56165,1.75478 -0.29137,1.37301 -0.28705,1.65611 0.0284,1.85578 0.54305,0.34379 0.58543,0.32606 1.51664,-0.6347 z m -7.09759,-0.4445 c 1.16583,-0.59477 2.90109,-0.69724 3.39768,-0.20065 0.44707,0.44707 0.61424,0.13507 1.21043,-2.25909 l 0.48406,-1.94387 -1.88463,-2.61841 c -1.17543,-1.63309 -1.88463,-2.87586 -1.88463,-3.30255 0,-0.87158 -1.43906,-2.2958 -2.78845,-2.7597 -0.88087,-0.30282 -1.13394,-0.28506 -2.083659,0.14627 -0.632034,0.28705 -1.69585,0.49338 -2.56136,0.49677 -1.093404,0.004 -1.594916,0.13241 -1.91866,0.49014 -0.415145,0.45873 -0.367258,0.53037 0.906089,1.35547 2.588723,1.67744 4.170352,4.68336 4.391771,8.34666 0.07036,1.16417 0.174186,2.2655 0.230717,2.4474 0.153272,0.49321 1.327532,0.40003 2.500642,-0.19844 z m 11.85881,-3.57188 c 0.31728,-0.58208 1.57408,-3.61817 2.79289,-6.74687 1.2188,-3.1287 2.78426,-6.99823 3.47879,-8.59896 1.21718,-2.80534 1.36166,-3.00732 4.00156,-5.594462 2.6621,-2.608905 2.73878,-2.716974 2.73878,-3.860281 0,-0.646928 0.25073,-2.118014 0.55718,-3.269078 0.94221,-3.539088 1.01372,-3.183842 -0.67606,-3.358242 -1.46178,-0.150868 -1.51857,-0.130797 -3.17322,1.121605 -1.90874,1.444721 -3.55189,2.078403 -5.80152,2.237362 -0.85231,0.06022 -1.64298,0.209121 -1.75705,0.330883 -0.23848,0.254576 -3.17225,10.941653 -3.17225,11.555813 0,0.27683 0.2255,0.39094 0.70563,0.35705 0.91316,-0.0645 2.17999,1.63886 2.39145,3.21542 0.13561,1.01101 0.0676,1.17989 -0.80674,2.00454 -0.86576,0.81651 -1.03092,1.21741 -1.77064,4.29766 -0.44871,1.86843 -1.1121,4.62822 -1.4742,6.13287 -0.52374,2.17625 -0.59262,2.81496 -0.33684,3.12316 0.33618,0.40508 0.7936,-0.18074 2.30224,-2.94847 z m -2.42474,-4.11808 c 0.60721,-2.53253 1.04764,-4.69583 0.97873,-4.80732 -0.13695,-0.22159 -1.68156,-0.28547 -1.68156,-0.0696 0,0.0733 -0.48073,1.87504 -1.0683,4.00398 l -1.06829,3.87081 0.60527,0.88886 c 0.33291,0.48887 0.72337,0.85037 0.8677,0.80333 0.14433,-0.047 0.75923,-2.15758 1.36645,-4.69011 z m -3.92326,0.44823 c -0.24327,-0.17982 -0.99179,-1.56625 -1.66337,-3.08096 -1.40898,-3.17785 -1.73255,-3.60279 -3.01234,-3.95615 -1.16975,-0.32299 -1.39922,-0.13533 -0.55456,0.45352 1.25206,0.87287 2.17342,2.07259 3.09267,4.02705 1.19295,2.53638 1.92694,3.54715 2.30028,3.16769 0.19706,-0.20028 0.14902,-0.38075 -0.16268,-0.61115 z m -49.646452,-2.69905 c 0.547079,-1.00825 1.427802,-2.92514 1.957165,-4.25976 1.061971,-2.67743 1.992429,-3.95365 3.064002,-4.20261 0.606496,-0.1409 0.988438,0.0987 2.726073,1.70981 3.895807,3.61224 5.033396,2.93505 6.847898,-4.07645 0.489569,-1.891772 1.165264,-4.077191 1.501539,-4.856489 l 0.611415,-1.416905 -1.277331,-1.172792 -1.277332,-1.172792 -1.372206,0.284869 c -2.243031,0.465653 -4.264712,-0.129836 -5.970412,-1.75859 -0.925256,-0.883518 -0.954064,-0.891572 -1.405329,-0.39293 -0.253392,0.279995 -1.21139,1.991389 -2.128888,3.803097 -2.531784,4.999323 -4.064023,10.069202 -4.635269,15.337202 -0.526979,4.8598 -0.297622,5.22685 1.358675,2.17434 z m 30.245439,-0.19242 c 0.466199,-0.48002 1.7164,-1.3293 2.778231,-1.88727 l 1.930596,-1.01451 -0.634834,-0.48808 c -0.803206,-0.61754 -1.089816,-0.61691 -2.299022,0.005 -1.639107,0.84312 -2.966022,2.57799 -2.966022,3.87791 0,0.57335 0.259742,0.46581 1.191051,-0.49313 z m 19.851763,-2.60123 c 0.33872,-1.38219 0.59447,-1.92107 0.9567,-2.0158 0.47611,-0.1245 0.47417,-0.162 -0.0527,-1.01451 -0.85013,-1.37554 -1.02913,-2.28906 -0.63309,-3.23096 0.3682,-0.87566 1.01873,-1.16551 2.35369,-1.04868 l 0.78094,0.0683 1.51739,-5.42396 c 0.83457,-2.983177 1.52494,-5.675974 1.53417,-5.983994 0.0128,-0.42755 -0.29188,-0.688308 -1.28794,-1.102254 -0.7176,-0.298217 -1.82201,-1.019037 -2.45425,-1.601819 l -1.14954,-1.059606 -2.1149,0.14496 c -1.80981,0.124047 -2.31422,0.05921 -3.49666,-0.449461 -1.52386,-0.65555 -3.06616,-2.184199 -3.70199,-3.669233 -1.006589,-2.350958 -0.171,-6.071674 1.74046,-7.749958 1.67602,-1.471565 3.02393,-1.9011 5.44502,-1.735156 2.11477,0.144949 2.12866,0.141687 3.089,-0.725927 0.53058,-0.479343 1.18935,-0.998222 1.46394,-1.153065 0.80618,-0.454604 0.17493,-0.780973 -2.41157,-1.246848 -6.96919,-1.255276 -15.222542,-0.65508 -22.015824,1.601022 -3.039941,1.009589 -8.278556,3.398147 -8.278556,3.774625 0,0.135721 0.760709,0.30783 1.690465,0.382461 2.072468,0.166357 4.217961,1.107453 5.76421,2.5284 l 1.144283,1.05156 1.36539,-0.281503 c 5.067826,-1.04484 9.60561,4.041259 7.947432,8.907745 -1.136213,3.334602 -4.616484,5.383699 -7.935089,4.671986 -1.28115,-0.274756 -1.324491,-0.262842 -2.321891,0.638249 -1.054499,0.952675 -2.601909,1.835047 -4.170436,2.378083 l -0.910193,0.315119 0.835017,0.951031 c 1.045157,1.190366 2.645844,4.580723 3.832275,8.117003 0.500195,1.49087 0.97976,2.781 1.065702,2.86694 0.08594,0.0859 0.365347,-0.0271 0.6209,-0.25119 0.255553,-0.22409 0.849784,-0.60251 1.320512,-0.84093 l 0.855869,-0.4335 -0.422566,-1.05609 c -0.293262,-0.73294 -0.390782,-1.61858 -0.318696,-2.8943 0.121562,-2.15139 0.937273,-3.566066 2.818627,-4.888331 1.535409,-1.079125 4.125039,-1.269125 5.99908,-0.440145 0.69261,0.306374 1.368489,0.557043 1.501959,0.557043 0.13346,0 1.03273,-0.598091 1.99836,-1.329092 1.82442,-1.381128 2.26911,-1.497415 2.39875,-0.62729 0.0554,0.371554 -0.4069,0.870892 -1.65365,1.786318 -0.95176,0.698834 -1.73048,1.313834 -1.73048,1.366668 0,0.05284 0.26487,0.544976 0.58859,1.093649 0.62815,1.06462 0.82639,3.74327 0.38168,5.15727 -0.20926,0.66538 -0.16491,0.71001 0.8813,0.88676 1.46577,0.24764 2.61721,1.30891 3.55979,3.28101 0.42424,0.88763 0.8557,1.61387 0.95879,1.61387 0.10309,0 0.39548,-0.84893 0.64975,-1.88651 z m -10.256157,-1.43341 c 1.891047,-0.79012 3.224637,-2.69979 3.224637,-4.61758 0,-1.24637 -0.92734,-3.27873 -1.372784,-3.00857 -1.407239,0.8535 -7.611427,5.80344 -7.611427,6.07269 0,0.37218 1.173007,1.28654 2.155074,1.67988 0.95464,0.38236 2.518071,0.32752 3.6045,-0.12642 z m 16.028687,-0.63367 c 0.8933,-0.33963 1.07241,-1.09678 0.52902,-2.23628 -0.51844,-1.08717 -0.60573,-1.10742 -2.29411,-0.53213 -1.34568,0.45852 -1.44172,0.6946 -0.85438,2.10029 0.3161,0.75655 0.52199,0.91755 1.1734,0.91755 0.43451,0 1.08525,-0.11225 1.44607,-0.24943 z M 95.4857,101.93436 c 3.234263,-2.458647 3.499175,-2.723167 3.113484,-3.108858 -0.302879,-0.302879 -0.927135,-0.42156 -2.21737,-0.42156 -1.516314,0 -1.967002,0.113289 -2.89574,0.7279 -0.604962,0.400344 -1.340408,1.199268 -1.634326,1.775398 -0.601104,1.17826 -0.749776,3.71441 -0.217741,3.71441 0.174156,0 1.907418,-1.20928 3.851693,-2.68729 z m 14.9015,1.82078 c -0.0327,-0.31636 -0.39563,-0.2551 -0.50932,0.086 -0.0582,0.17462 0.037,0.26987 0.21166,0.21167 0.17463,-0.0582 0.30857,-0.19216 0.29766,-0.29766 z M 83.359465,94.442386 c 1.243182,-0.438621 3.459975,-1.941896 3.459975,-2.346317 0,-0.145775 -0.195027,-0.480544 -0.43339,-0.743934 -0.347488,-0.383969 -0.369084,-0.556379 -0.108951,-0.869818 0.281348,-0.339005 0.510945,-0.285671 1.728656,0.401563 2.347687,1.324952 4.901879,1.084602 6.717347,-0.632102 2.965624,-2.804293 2.265973,-7.369135 -1.390407,-9.071639 -2.108888,-0.981953 -4.252319,-0.755931 -3.945831,0.416084 0.221678,0.847701 -0.714301,1.039775 -1.225381,0.251465 -0.944472,-1.456801 -2.508673,-2.881561 -3.930861,-3.580447 -1.288294,-0.63309 -1.845249,-0.744779 -3.761182,-0.754256 -1.902118,-0.0094 -2.473383,0.09674 -3.704166,0.688271 -0.800365,0.38467 -1.782374,1.014328 -2.182244,1.399244 -0.680691,0.655232 -0.701392,0.738976 -0.324768,1.313778 0.356666,0.544337 0.357447,0.651131 0.0069,0.942059 -0.321276,0.266634 -0.570355,0.219975 -1.32914,-0.248981 l -0.933773,-0.577104 -1.749824,1.675387 c -2.127366,2.036863 -5.128823,5.73084 -5.128823,6.312183 0,0.524462 1.165251,1.638734 2.326822,2.225019 0.586992,0.296275 1.364581,0.414136 2.38125,0.360934 1.480852,-0.07749 1.509636,-0.09402 1.509636,-0.867 0,-0.98252 0.752819,-1.220671 1.202512,-0.38041 0.415928,0.777168 2.345272,2.856693 2.9513,3.181027 0.368438,0.197181 0.685729,0.103973 1.339493,-0.393494 1.263248,-0.961239 2.074204,-1.088506 2.882852,-0.452421 0.374187,0.294335 0.829964,0.896376 1.012836,1.337873 0.383119,0.924933 0.933309,1.011367 2.629156,0.413036 z m 37.988095,-6.207847 c 0.87313,-0.42695 1.88511,-1.015328 2.24884,-1.307505 0.64966,-0.521845 0.65322,-0.544981 0.20124,-1.310111 -0.38456,-0.651009 -0.40103,-0.827902 -0.10034,-1.077454 0.27591,-0.228987 0.71316,-0.11267 1.87615,0.499096 1.01211,0.532403 1.899,0.797669 2.66693,0.797669 h 1.15055 l 1.23416,-2.443287 1.23416,-2.443287 -1.1548,-1.035798 c -2.27067,-2.036668 -9.27657,-6.284685 -9.68734,-5.873909 -0.17616,0.176157 -4.0351,14.177422 -4.03514,14.640552 -6e-5,0.663408 2.65066,0.392625 4.36559,-0.445966 z m -3.91152,-6.653443 c 1.05093,-3.844308 1.981,-7.305899 2.06682,-7.692424 0.14545,-0.655039 0.0521,-0.741648 -1.37404,-1.275246 -0.84154,-0.314862 -1.83928,-0.634315 -2.21719,-0.709899 -0.81385,-0.162771 -2.66918,0.649367 -3.97429,1.739681 -0.89191,0.745117 -0.89958,0.768897 -0.41959,1.299966 0.5114,0.565809 0.40129,1.103477 -0.22597,1.103477 -0.20199,0 -0.92707,-0.297656 -1.61129,-0.661458 -2.79599,-1.486641 -6.47446,-0.202473 -7.67919,2.680835 -0.97898,2.343036 -0.0971,5.371943 1.99281,6.844164 0.97924,0.689835 1.35761,0.79375 2.8901,0.79375 h 1.76335 v -0.788 c 0,-1.247873 0.74822,-1.153308 1.68854,0.213407 0.44468,0.646327 1.19918,1.504911 1.67666,1.907964 0.95896,0.809495 2.83651,1.743019 3.24865,1.615241 0.14512,-0.04499 1.1237,-3.227147 2.17463,-7.071458 z M 82.189232,160.61699 c -4.386323,-2.06296 -4.090411,-1.83649 -3.483687,-2.66623 0.325665,-0.44537 0.4019,-0.45048 0.992188,-0.0664 0.351678,0.22882 1.648478,0.84684 2.881778,1.37337 1.233299,0.52654 2.284743,0.99972 2.33654,1.05152 0.141899,0.1419 -0.468146,1.19926 -0.685607,1.18833 -0.104021,-0.005 -1.022567,-0.40148 -2.041212,-0.88057 z m 37.024388,0.30646 c -0.10188,-0.32098 -0.0801,-0.61963 0.0483,-0.66367 0.12845,-0.044 1.5015,-0.6587 3.05122,-1.36593 l 2.81767,-1.28587 0.28409,0.6235 c 0.25328,0.55589 0.19484,0.66965 -0.53894,1.04911 -1.19159,0.61619 -4.99137,2.22647 -5.25382,2.22647 -0.12282,0 -0.30666,-0.26262 -0.40853,-0.58361 z m -66.963647,-4.83212 c -1.141427,-1.39834 -2.075323,-2.67364 -2.075323,-2.834 0,-0.16035 0.207065,-0.42216 0.460145,-0.5818 0.371935,-0.23461 0.543291,-0.17155 0.893882,0.32899 0.238555,0.34059 1.043522,1.33553 1.788813,2.21099 2.139228,2.51283 2.097762,2.43187 1.515322,2.95897 -0.490509,0.4439 -0.57707,0.37408 -2.582839,-2.08315 z m 98.051057,0.76335 c -0.22872,-0.27559 -0.26245,-0.54013 -0.0985,-0.7727 1.43192,-2.03173 3.75076,-4.87016 3.98715,-4.88055 0.16409,-0.007 0.43643,0.15328 0.60522,0.35666 0.30178,0.36363 -0.33783,1.35902 -3.0882,4.80603 -0.82545,1.03453 -0.92526,1.06936 -1.40563,0.49056 z m -79.753464,-3.33242 c -2.85746,-2.38076 -3.564266,-3.1767 -3.284757,-3.69897 0.143367,-0.26788 0.350769,-0.48706 0.460891,-0.48706 0.110122,0 0.790543,0.53988 1.512046,1.19973 0.7215,0.65986 1.814155,1.58259 2.428118,2.05052 1.181409,0.90042 1.328208,1.21087 0.81516,1.72392 -0.444958,0.44496 -0.457705,0.43975 -1.931458,-0.78814 z m 60.882474,0.68712 c -0.0883,-0.23018 -0.1606,-0.45087 -0.1606,-0.49042 0,-0.0396 1.11812,-1.03578 2.48472,-2.21385 2.33569,-2.01347 2.50995,-2.11407 2.90521,-1.67731 0.39022,0.43119 0.33041,0.55073 -0.83108,1.66104 -1.87311,1.79057 -3.55567,3.13906 -3.91671,3.13906 -0.17652,0 -0.39322,-0.18833 -0.48154,-0.41852 z M 44.540265,144.3723 c -1.714455,-3.36004 -1.800698,-3.66358 -1.141176,-4.01655 0.480739,-0.25728 0.652274,-0.0301 1.99709,2.64524 0.809149,1.60968 1.47118,3.03458 1.47118,3.16645 0,0.13186 -0.227776,0.36166 -0.50617,0.51065 -0.452992,0.24244 -0.644297,1.9e-4 -1.820924,-2.30579 z m 113.734765,0.74713 c -0.31339,-0.19811 -0.18906,-0.6478 0.7201,-2.60457 0.60438,-1.30082 1.22151,-2.68767 1.37139,-3.08189 0.3444,-0.90583 1.49771,-0.89472 1.40544,0.0135 -0.0764,0.75158 -2.5192,5.75252 -2.85357,5.84176 -0.14552,0.0388 -0.43503,-0.0371 -0.64336,-0.16884 z m -17.03231,-0.73997 c -0.40341,-0.40341 -0.39021,-0.49341 0.18256,-1.24477 0.33957,-0.44545 1.12453,-1.64335 1.74436,-2.662 0.61982,-1.01865 1.16221,-1.8915 1.2053,-1.93967 0.0431,-0.0482 0.32736,0.0457 0.63172,0.20858 0.53246,0.28497 0.53685,0.32828 0.11601,1.14592 -0.56015,1.08833 -2.92668,4.60638 -3.22097,4.78826 -0.12327,0.0762 -0.41981,-0.0572 -0.65898,-0.29632 z m -80.677261,-1.98854 c -2.158595,-3.25577 -2.218174,-3.39456 -1.638951,-3.8181 0.602888,-0.44084 0.60456,-0.43906 2.601817,2.76825 1.250373,2.00792 1.470531,2.52673 1.20699,2.84427 -0.177284,0.21362 -0.412401,0.38839 -0.522486,0.38839 -0.110083,0 -0.851397,-0.98226 -1.64737,-2.18281 z M 39.752781,131.91418 c -1.221495,-4.24008 -1.30952,-5.46471 -0.379916,-5.28552 0.326741,0.063 0.639587,0.85724 1.180115,2.99611 0.888028,3.51394 0.901304,3.7373 0.232513,3.9122 -0.453363,0.11855 -0.595323,-0.10452 -1.032712,-1.62279 z m 108.161329,0.22649 c -0.3746,-0.21904 -0.31683,-0.59674 0.52459,-3.42983 0.85592,-2.88188 0.99614,-3.16819 1.47929,-3.02023 0.29355,0.0899 0.58219,0.20703 0.64141,0.2603 0.12425,0.11176 -0.86443,3.6672 -1.48146,5.32751 -0.44504,1.19751 -0.50919,1.24503 -1.16383,0.86225 z m -93.332367,-2.44975 c -0.427421,-1.34607 -0.859189,-2.83435 -0.959487,-3.30729 -0.16804,-0.79237 -0.129567,-0.8599 0.489923,-0.8599 0.567331,0 0.71926,0.17555 0.973196,1.12448 0.165505,0.61847 0.582276,2.01322 0.926163,3.09947 0.473623,1.49604 0.547489,2.0244 0.304597,2.17876 -0.718005,0.45629 -0.991653,0.10358 -1.734392,-2.23552 z m 108.640337,2.03268 c -0.0826,-0.0826 -0.0279,-0.58859 0.12151,-1.12448 0.14941,-0.53589 0.47769,-1.98638 0.7295,-3.2233 0.42108,-2.06833 0.50872,-2.24896 1.09116,-2.24896 0.75481,0 0.75315,0.10694 -0.0629,4.03489 -0.50865,2.44839 -0.62007,2.71198 -1.14629,2.71198 -0.32058,0 -0.65043,-0.0676 -0.733,-0.15013 z M 37.557981,117.0045 c -0.06737,-1.35354 -0.07078,-2.97355 -0.0076,-3.60003 0.09931,-0.9845 0.191726,-1.12811 0.681037,-1.05834 0.545281,0.0777 0.566132,0.20741 0.566132,3.52031 0,3.29833 -0.02294,3.44286 -0.558551,3.51931 -0.526795,0.0752 -0.565514,-0.0602 -0.681036,-2.38125 z M 150.3779,115.13884 c 0.0702,-3.33596 0.10082,-3.50959 0.63122,-3.58531 0.50283,-0.0718 0.57451,0.0874 0.73208,1.62539 0.0961,0.93773 0.096,2.55112 -8e-5,3.58531 -0.16324,1.75638 -0.21636,1.88034 -0.8059,1.88034 h -0.63114 z M 52.423609,114.9404 v -3.43958 h 0.661458 0.661458 v 3.43958 3.43958 h -0.661458 -0.661458 z m 113.241661,2.73861 c -0.32257,-0.0871 -0.40879,-0.74975 -0.46053,-3.53954 l -0.0636,-3.4324 h 0.6281 c 0.82452,0 0.91453,0.41818 0.86379,4.01352 -0.0411,2.91015 -0.13076,3.18435 -0.96771,2.95842 z M 38.421727,104.30932 c 0.01157,-0.48306 0.27946,-2.00939 0.595313,-3.39184 0.537274,-2.351579 0.616899,-2.513538 1.235736,-2.513538 0.517037,0 0.640519,0.115538 0.565556,0.529166 -0.05275,0.291042 -0.358719,1.779322 -0.679942,3.307292 -0.511839,2.43469 -0.655349,2.78858 -1.160868,2.86267 -0.497121,0.0729 -0.573922,-0.0368 -0.555795,-0.79375 z m 15.512237,0.12783 c -0.291629,-0.0757 -0.426191,-0.293 -0.34971,-0.56462 0.06837,-0.24283 0.441253,-1.58296 0.828624,-2.97806 0.870921,-3.13659 0.958437,-3.292247 1.644542,-2.925056 0.52265,0.279712 0.522184,0.2951 -0.07072,2.342416 -0.328255,1.13348 -0.733044,2.56688 -0.899533,3.18534 -0.166489,0.61846 -0.387414,1.11067 -0.490945,1.09379 -0.103531,-0.0169 -0.40155,-0.0861 -0.66226,-0.15381 z m 94.501586,-3.01323 c -0.94481,-3.181205 -0.94684,-3.198823 -0.39281,-3.408021 0.71398,-0.2696 0.93147,0.131892 1.90346,3.513911 0.63831,2.221 0.69059,2.63193 0.36132,2.84022 -0.21173,0.13393 -0.50585,0.24534 -0.65361,0.24757 -0.14775,0.002 -0.69602,-1.43493 -1.21836,-3.19368 z m 15.01597,-1.33576 c -0.60877,-2.623203 -0.68014,-3.251681 -0.39014,-3.435281 0.19521,-0.123589 0.47399,-0.187743 0.61951,-0.14256 0.32091,0.09964 1.37616,3.684071 1.61529,5.486731 0.16531,1.24613 0.14553,1.30168 -0.46345,1.30168 -0.59591,0 -0.68325,-0.20303 -1.38121,-3.21057 z M 58.943561,91.320448 c -0.422982,-0.30929 -0.332716,-0.539792 1.111922,-2.83941 1.74753,-2.781776 2.168196,-3.185062 2.786805,-2.671662 0.359979,0.298757 0.256509,0.565851 -0.865272,2.233615 -0.700778,1.041858 -1.495771,2.281238 -1.766654,2.75418 -0.553572,0.966502 -0.621999,0.994767 -1.266801,0.523277 z m 85.290459,0.100992 c 0,-0.129596 -0.71438,-1.32356 -1.5875,-2.653258 -0.87313,-1.329695 -1.5875,-2.520611 -1.5875,-2.646481 0,-0.399283 0.84604,-0.571447 1.23241,-0.250786 0.20438,0.169617 1.0294,1.371817 1.83339,2.671557 1.16939,1.890469 1.39942,2.438315 1.14997,2.738879 -0.34515,0.415885 -1.04077,0.509516 -1.04077,0.140089 z M 42.409689,91.158372 c -0.281271,-0.178249 -0.04755,-0.876249 1.106086,-3.30324 0.804494,-1.692476 1.560289,-3.075408 1.679546,-3.073181 0.119256,0.0021 0.387282,0.111916 0.595612,0.243753 0.313415,0.198332 0.189146,0.647851 -0.7201,2.604818 -0.604385,1.300816 -1.218374,2.679408 -1.364421,3.063541 -0.272893,0.717764 -0.671544,0.860507 -1.296723,0.464309 z M 158.63561,86.85828 c -1.36684,-2.725404 -1.44527,-2.978754 -1.04437,-3.373438 0.39908,-0.39289 0.46585,-0.384765 0.84194,0.102434 0.54658,0.708064 2.73417,5.168481 2.73417,5.574884 0,0.269187 -0.54955,0.642824 -0.94547,0.642824 -0.0596,0 -0.77346,-1.326018 -1.58627,-2.946704 z M 134.8398,79.534618 c -0.7271,-0.681455 -1.85765,-1.675757 -2.51233,-2.209559 -1.12395,-0.916434 -1.16528,-0.996275 -0.74115,-1.431917 0.42603,-0.437583 0.5215,-0.405405 1.85209,0.624298 0.7716,0.597114 1.91245,1.606775 2.53524,2.24369 1.07455,1.098923 1.10825,1.179833 0.66025,1.585265 -0.44072,0.398843 -0.55994,0.344897 -1.7941,-0.811777 z m -67.523884,0.560851 c -0.126722,-0.330229 0.342392,-0.919927 1.772359,-2.227937 2.385351,-2.181916 3.112278,-2.617893 3.456821,-2.073238 0.133829,0.211558 0.245149,0.450173 0.247377,0.530259 0.0069,0.24746 -4.719103,4.220014 -5.020381,4.220014 -0.156112,0 -0.361392,-0.202094 -0.456176,-0.449098 z M 49.405521,78.610913 c -0.438373,-0.320545 -0.354339,-0.501597 1.135957,-2.447396 2.690771,-3.513195 2.627215,-3.453926 3.14667,-2.934469 0.314555,0.314555 0.369511,0.555746 0.186184,0.817139 -0.942753,1.344213 -3.725848,4.886973 -3.847549,4.897765 -0.08133,0.0072 -0.360895,-0.142653 -0.621262,-0.333039 z M 150.91842,74.993908 c -2.00917,-2.438513 -2.11726,-2.632061 -1.68718,-3.021269 0.42354,-0.383307 0.53258,-0.338524 1.39334,0.57231 1.31352,1.389917 3.39902,4.034602 3.39902,4.310396 0,0.127063 -0.21566,0.346437 -0.47924,0.487505 -0.40525,0.216884 -0.81066,-0.145759 -2.62594,-2.348942 z M 78.613991,71.807031 c -0.263003,-0.491426 -0.10605,-0.617746 1.908921,-1.536345 3.75865,-1.713516 3.931272,-1.768748 4.200247,-1.343861 0.329264,0.520128 0.301464,1.034409 -0.05592,1.034409 -0.165063,0 -1.431163,0.535782 -2.81355,1.190625 -1.38239,0.654844 -2.612366,1.190625 -2.733283,1.190625 -0.120918,0 -0.348803,-0.240953 -0.506415,-0.535453 z m 43.219749,-0.804714 c -2.34513,-1.128035 -2.67027,-1.36429 -2.54369,-1.848324 0.18606,-0.711491 0.66348,-0.597468 3.97212,0.948669 1.95168,0.912029 2.47467,1.267399 2.3486,1.595906 -0.0892,0.232436 -0.16217,0.472406 -0.16217,0.533265 0,0.336616 -1.22553,-0.08022 -3.61486,-1.229516 z M 58.913314,67.852759 c -0.429409,-0.474487 -0.339027,-0.586078 2.132644,-2.633088 1.419582,-1.175681 2.675477,-2.137603 2.790878,-2.137603 0.115401,0 0.329724,0.224041 0.476271,0.497869 0.230074,0.429892 -0.08975,0.7894 -2.342464,2.633091 -2.517947,2.060768 -2.624553,2.117945 -3.057329,1.639731 z m 32.858953,-0.792736 c -0.08815,-0.33709 0.0173,-0.564902 0.299871,-0.647732 0.572625,-0.167868 3.251359,-0.598633 4.999905,-0.804029 1.345242,-0.158022 1.389063,-0.142528 1.389063,0.491188 0,0.580671 -0.141529,0.67328 -1.256771,0.82237 -0.691224,0.09241 -1.903717,0.278294 -2.694427,0.413089 -2.121413,0.361635 -2.583314,0.315256 -2.737641,-0.274886 z m 17.536753,0.230825 c -0.80036,-0.125 -1.96841,-0.298048 -2.59565,-0.384551 -0.98296,-0.135556 -1.1291,-0.236913 -1.05833,-0.73398 0.0935,-0.656606 0.61877,-0.675908 4.20997,-0.154692 2.29785,0.333502 2.76246,0.542333 2.53358,1.138783 -0.17895,0.466328 -0.79335,0.493064 -3.08957,0.13444 z m 33.26372,-0.704541 c -0.23121,-0.255481 -1.31789,-1.118684 -2.41485,-1.918229 -1.09696,-0.799547 -1.99781,-1.520258 -2.00188,-1.601586 -0.004,-0.08133 0.14723,-0.359341 0.33622,-0.617805 0.31729,-0.433914 0.5049,-0.347877 2.4474,1.122339 3.56229,2.696189 3.44682,2.580441 3.05051,3.057967 -0.45419,0.547272 -0.89552,0.533982 -1.4174,-0.04269 z M 70.418177,59.383325 c -0.255834,-0.478028 -0.02312,-0.652721 2.666005,-2.00137 2.935184,-1.47205 3.684679,-1.61969 3.677102,-0.724337 -0.0029,0.336198 -0.826339,0.869566 -2.872346,1.860388 -1.577596,0.763984 -2.94083,1.389062 -3.02941,1.389062 -0.08858,0 -0.287187,-0.235684 -0.441351,-0.523743 z m 59.193063,-1.188902 c -0.98476,-0.483654 -2.26468,-1.069109 -2.84427,-1.301012 -1.05066,-0.420391 -1.24803,-0.768092 -0.81967,-1.444013 0.34333,-0.541768 6.50709,2.42316 6.27809,3.019926 -0.0892,0.23248 -0.1622,0.472484 -0.1622,0.533342 0,0.268661 -0.78843,0.0088 -2.45195,-0.808243 z M 83.647551,53.976824 c -0.116824,-0.303626 -0.135551,-0.628708 -0.04161,-0.722405 0.221353,-0.220787 6.367599,-1.659511 6.501211,-1.521814 0.05586,0.05757 0.14265,0.330051 0.192866,0.605515 0.07923,0.43464 -0.340371,0.612533 -3.174376,1.345798 -3.25843,0.843078 -3.266148,0.843729 -3.478088,0.292906 z M 115.79131,53.38808 c -1.45521,-0.335756 -2.91372,-0.613681 -3.24114,-0.617613 -0.45671,-0.0055 -0.59532,-0.161157 -0.59532,-0.668607 0,-0.845837 0.53962,-0.852857 4.09852,-0.05332 2.07511,0.466193 2.6634,0.698191 2.73679,1.079289 0.0514,0.266996 -0.007,0.572133 -0.12976,0.678081 -0.12279,0.105949 -1.41388,-0.08207 -2.86909,-0.41783 z M 97.843745,51.793179 c -0.09701,-0.09701 -0.176389,-0.382823 -0.176389,-0.635132 0,-0.395543 0.337179,-0.471484 2.447394,-0.551216 3.76416,-0.142223 4.43177,-0.0324 4.43177,0.72907 v 0.633667 h -3.26319 c -1.79476,0 -3.342572,-0.07938 -3.439585,-0.176389 z"
       id="path283" />
  </g>
</svg>
